<?xml version="1.0" encoding="utf-8"?>
<!-- Generator: Adobe Illustrator 16.0.0, SVG Export Plug-In . SVG Version: 6.00 Build 0)  -->
<!DOCTYPE svg PUBLIC "-//W3C//DTD SVG 1.1//EN" "http://www.w3.org/Graphics/SVG/1.1/DTD/svg11.dtd">
<svg version="1.1" id="Layer_1" xmlns="http://www.w3.org/2000/svg" xmlns:xlink="http://www.w3.org/1999/xlink" x="0px" y="0px"
	 width="562.055px" height="212.426px" viewBox="0 0 562.055 212.426" enable-background="new 0 0 562.055 212.426"
	 xml:space="preserve">
<path fill="#A8C399" d="M201.648,3.028c-13.293,13.805-35.586,21.171-41.367,40.886c6.649-10.987,15.668-19.605,25.975-26.937
	c0.683-0.041,1.362-0.079,1.443,0.481c4.53-5.892,12.374-8.47,16.835-14.43c1.485,0.119,2.719,0.488,3.848,0.962
	c-6.547,10.287-20.251,15.631-30.304,24.532c-1.454,1.287-2.743,3.516-4.329,5.291c-2.813,3.148-4.927,4.403-6.734,8.658
	c0,1.283,0,2.565,0,3.848c-6.782-0.112-12.197-1.591-15.874-4.81c1.245-10.264,8.192-15.172,15.393-21.165
	c6.843-5.695,13.47-13.577,21.165-15.874c1.24-0.37,2.354-2.142,4.81-1.924c-1.938,4.179-7.071,6.326-11.063,9.139
	c-5.422,3.822-11.32,8.294-16.354,12.506c-5.173,4.329-10.254,10.689-10.583,18.278c7.729-19.688,28.318-26.518,41.848-40.405
	C197.938,2.57,200.296,2.296,201.648,3.028z"/>
<path fill="#A8C399" d="M219.446,6.876c-3.544,4.176-11.137,6.449-16.354,10.101c-8.393,5.875-15.328,12.052-22.127,19.722
	c-2.052,2.315-5.672,4.452-5.772,8.177c5.243-2.794,7.574-10.998,12.987-12.025c7.515-12.046,23.005-16.118,33.19-25.494
	c7.791,0.921,9.275,8.218,3.367,12.987c-3.463,2.795-9.818,5.284-15.874,9.139c-10.571,6.731-22.244,17.103-39.924,16.835
	c1.087-10.552,11.77-17.979,19.24-22.126c0.061-1.43,0.997-2.171,1.924-2.886c7.128-5.496,16.11-9.103,21.165-16.835
	C213.723,5.544,217.191,5.604,219.446,6.876z M217.041,16.015c-10.938,6.516-23.08,11.753-29.823,22.608
	c5.876-2.724,10.033-8.745,15.874-12.988c7.192-5.225,16.459-7.736,22.607-13.949c-0.687-0.115-0.812-0.792-1.443-0.962
	C222.003,12.568,219.598,14.492,217.041,16.015z"/>
<path d="M224.256,10.724c0.631,0.17,0.756,0.847,1.443,0.962c-6.148,6.213-15.416,8.724-22.607,13.949
	c-5.841,4.243-9.997,10.264-15.874,12.988c6.743-10.854,18.885-16.092,29.823-22.608C219.598,14.492,222.003,12.568,224.256,10.724z
	"/>
<path fill="#A8C399" d="M207.902,52.572c-5.868-2.47-12.814-3.861-18.76-6.253c-0.078-0.559,0.106-0.855,0.481-0.962
	c6.061-0.575,11.689,3.357,17.798,4.329C207.41,50.819,208.249,51.103,207.902,52.572z"/>
<path fill="#A8C399" d="M243.978,62.192c-11.545-3.045-22.782-6.399-34.152-9.62c0.042-0.683,0.08-1.362-0.481-1.443
	c0.17-0.551,0.847-1.219,0.962-0.481C221.229,54.797,236.785,54.314,243.978,62.192z"/>
<path d="M162.206,50.648c0.481,0,0.962,0,1.443,0c1.716,2.698,2.542,10.164-0.962,11.544
	C163.923,58.345,163.888,53.95,162.206,50.648z"/>
<path fill="#F48F9B" d="M68.889,52.091c-2.209,3.393-11.114,6.344-16.354,7.215c-2.346,0.39-6.221,1.229-7.696-0.962
	c5.759-0.882,14.29-7.561,21.646-5.291C65.515,51.227,68.671,51.146,68.889,52.091z"/>
<path d="M187.218,53.053c3.842,1.192,5.67,10.55,1.924,13.468c-1.784-1.265,0.923-2.788,0.962-4.81
	C190.175,58.093,186.758,55.766,187.218,53.053z"/>
<path fill="#A8C399" d="M245.421,60.269c63.593,12.727,116.949,35.692,176.05,52.911c-2.998,0.744-7.779-0.872-10.102-2.405
	c-14.887-2.349-28.967-6.55-42.33-11.544c-13.492-5.043-26.906-9.097-40.404-13.468c-26.854-8.698-53.441-17.883-82.733-23.57
	C245.963,61.33,245.313,61.178,245.421,60.269z"/>
<path d="M214.155,66.041c4.71,2.153,4.371,10.155,0.962,13.468c-2.425-0.678,0.73-3.194,0.962-4.329
	C217.296,70.508,213.446,68.633,214.155,66.041z"/>
<path fill="#A8C399" d="M306.991,80.471c-0.146,1.122-1.027,2.073,0.48,2.405c-7.16-0.057-13.604-4.994-21.165-6.253
	c-0.697-0.906-0.707-2.5-1.925-2.886c-1.676,0.142,0.041,1.301-0.961,1.443c-5.932-2.086-13.397-2.637-17.317-6.734
	c-0.135-0.859,0.455-0.987,0.481-0.481C280.686,71.501,294.127,75.696,306.991,80.471z"/>
<path d="M154.509,68.445c6.679,0.862,7.429,12.524,2.405,15.874c-1.342-2.045,1.796-4.045,1.924-7.215
	C159.017,72.672,156.604,71.315,154.509,68.445z"/>
<path d="M231.471,73.737c6.219,1.788,2.767,14.422-2.886,12.506c2.649-2.046,5.417-3.877,4.81-8.177
	C233.147,76.312,231.374,75.804,231.471,73.737z"/>
<path d="M291.118,90.091c0.014-0.468,0.588-0.374,0.961-0.481c3.45,1.818,2.836,9.519,0.481,12.025
	C291.04,99.545,295.065,92.542,291.118,90.091z"/>
<path d="M343.067,114.624c1.59-1.457,3.236-2.855,4.328-4.812c0.674-2.528-1.906-3.514-0.48-5.291
	c3.9,2.452,1.156,8.961-1.924,10.103c8.324,3.416,20.498,2.607,26.938,6.733c-0.131,1.634,0.371,3.899-0.48,4.81
	c-8,1.674-18.592-0.562-25.014-0.479c-0.594,1.989,0.184,3.745-1.441,6.253c0.445,1.156,3.496-0.291,2.885,1.924
	c-1.506,0.596-4.367-1.49-6.252,0.481c-2.797-2.569-7.74-2.868-12.025-3.367c-15.982-1.86-33.611-2.207-49.063-5.291
	c-3.411,0.597-1.949,6.067-6.253,5.771c-1.19-1.787,2.612-1.998,2.405-4.328c-3.067-0.975-8.886-0.555-12.025,0
	c1.895-3.558,11.209,0.307,13.95-2.405c0.209-2.195-0.486-5.296,0.481-6.733c2.801,0.211,0.985,5.721,0.962,6.254
	c12.336,3.137,34.123,4.155,50.025,5.771c5.684,0.576,15.012,5.258,14.43-3.85c-4.262-3.061-10.43-2.103-15.873-3.367
	c-21.055-4.891-43.248-11.162-65.417-14.91c-1.103,3.066-0.407,7.931-4.329,8.177c0.51-2.487,3.508-4.676,1.924-7.694
	c-16.753-4.94-39.492-1.675-55.797-3.85c-15.53-2.071-34.535,3.876-47.62-3.367c-0.319-2.448-0.983-5.88,0-8.177
	c7.278-3.651,12.019,0.936,19.721,1.443c18.136,1.195,39.315-0.945,57.241,0.962c13.051,1.388,30.626,3.243,43.291,6.253
	C302.168,104.638,321.62,110.435,343.067,114.624z M241.573,98.269c-13.606-1.214-27.805-0.446-43.291-1.443
	c-9.559-0.615-19.292,0.846-27.418-0.481c-3.478-0.568-11.191-5.193-11.544,0.962c-0.235,4.09,6.239,5.001,9.139,5.292
	c14.69,1.469,25.083-0.943,38.962,0c2.553,0.173,5.12,0.945,7.696,0.962c23.125,0.152,47.575,1.188,68.785,5.291
	c4.39,0.85,8.288,3.17,12.507,4.329c5.561,1.528,11.543,2.013,17.314,3.366c11.568,2.713,23.256,5.594,36.076,7.216
	c6.48,0.819,14.299,2.317,19.723-0.479c-7.189-3.714-17.432-4.375-26.938-5.773C313.112,110.879,278.787,101.587,241.573,98.269z"/>
<path d="M104.484,93.458c3.541,2.049,4.107,11.625,0,13.468C105.95,102.089,105.779,98.504,104.484,93.458z"/>
<path fill="#A8C399" d="M342.584,117.508c9.506,1.398,19.746,2.061,26.938,5.773c-5.424,2.797-13.242,1.299-19.723,0.479
	c-12.82-1.622-24.508-4.503-36.076-7.216c-5.771-1.354-11.754-1.838-17.314-3.366c-4.219-1.159-8.117-3.479-12.507-4.329
	c-21.21-4.103-45.66-5.139-68.785-5.291c-2.576-0.017-5.143-0.789-7.696-0.962c-13.88-0.943-24.272,1.469-38.962,0
	c-2.9-0.29-9.374-1.201-9.139-5.292c0.354-6.155,8.067-1.53,11.544-0.962c8.125,1.327,17.859-0.134,27.418,0.481
	c15.486,0.997,29.685,0.229,43.291,1.443C278.787,101.587,313.112,110.879,342.584,117.508z M160.763,95.863
	c0,0.802,0,1.604,0,2.405c7.11,4.55,23.555,1.806,30.304,2.886c-4.335-4.443-24.534,2.41-29.342-4.329
	c0.56-0.883,3.139,0.253,2.405-1.924C162.37,94.585,162.284,95.942,160.763,95.863z M326.711,117.028
	c-25.123-5.583-50.081-12.992-76.961-15.393c-17.052-1.522-37.182-0.846-54.835-2.405c0.134-1.097-0.116-1.808-0.962-1.924
	c-0.375,0.106-0.559,0.403-0.481,0.962c-0.32,0-0.641,0-0.962,0c2.109,3.473,7.439,2.139,11.063,2.405
	c11.58,0.849,27.778,0.21,42.329,0.962c13.937,0.721,24.499,3.891,36.558,6.253c27.352,5.358,53.795,13.5,82.734,15.872
	C352.627,119.7,339.401,119.848,326.711,117.028z"/>
<path d="M164.129,94.901c0.734,2.177-1.845,1.041-2.405,1.924c4.808,6.739,25.007-0.114,29.342,4.329
	c-6.749-1.08-23.194,1.664-30.304-2.886c0-0.802,0-1.604,0-2.405C162.284,95.942,162.37,94.585,164.129,94.901z"/>
<path d="M122.763,95.382c4.872,2.226,4.391,13.675-1.443,14.43c1.729-2.899,3.89-4.996,3.367-9.139
	C124.38,98.243,121.974,97.372,122.763,95.382z"/>
<path d="M365.194,123.762c-28.939-2.373-55.383-10.514-82.734-15.873c-12.059-2.363-22.621-5.533-36.558-6.253
	c-14.551-0.752-30.749-0.113-42.329-0.962c-3.625-0.266-8.955,1.068-11.063-2.405c0.321,0,0.642,0,0.962,0
	c-0.078-0.56,0.106-0.856,0.481-0.962c0.846,0.116,1.097,0.828,0.962,1.924c17.654,1.559,37.784,0.882,54.835,2.405
	c26.881,2.401,51.838,9.81,76.961,15.393C339.401,119.848,352.627,119.7,365.194,123.762z"/>
<path d="M362.307,113.18c2.32-3.338,9.877-5.133,4.328-11.544C372.903,101.875,369.608,115.016,362.307,113.18z"/>
<path d="M94.864,103.56c2.914,2.433,1.33,10.276-2.405,10.582C94.921,111.069,94.131,106.276,94.864,103.56z"/>
<path d="M205.978,106.926c6.188,0.175,4.927,13.02,0.481,12.507C209.618,115.776,208.725,110.479,205.978,106.926z"/>
<path d="M171.345,110.293c4.983,3.283,3.251,15.277-3.367,15.394c1.792-2.617,5.026-3.966,5.292-7.696
	C173.485,114.948,170.826,113.004,171.345,110.293z"/>
<path d="M382.028,112.217c0.48,0,0.963,0,1.443,0c1.377,2.07,2.188,10.465-1.443,10.582
	C383.586,118.797,383.127,116.514,382.028,112.217z"/>
<path d="M405.118,112.217c0.775-0.135,0.828,0.455,1.441,0.48c0.951,5.766-1.674,10.506-6.252,9.141
	C403.692,119.75,406.325,116.312,405.118,112.217z"/>
<path d="M422.432,117.028c4,2.211-0.486,9.764-4.328,7.215C420.27,122.319,423.417,120.752,422.432,117.028z"/>
<path d="M247.345,119.433c4.015,3.06,2.72,12.716-2.405,13.469c0.14-2.396,2.768-2.588,3.367-5.291
	C249,124.481,247.089,121.821,247.345,119.433z"/>
<path d="M180.003,120.395c4.602,1.243,6.476,9.003,4.329,13.95C184.16,128.422,182.741,123.749,180.003,120.395z"/>
<path d="M218.484,121.838c5.736,1.92,3.305,14.117-2.405,12.507C220.909,131.813,221.585,126.704,218.484,121.838z"/>
<path d="M147.775,125.687c3.884,2.549,2.871,12.668-1.443,13.948C148.454,135.561,149.198,131.034,147.775,125.687z"/>
<path d="M396.94,127.61c0.48,0,0.963,0,1.441,0c2.387,4.196,1.266,8.398-1.441,11.544c8.314,1.509,21.072,1.205,31.746,0.481
	c1.865-1.502,2.723-4.014,2.404-7.696c3.23,0.729,0.162,4.897,0.963,7.696c3.582-0.305,7.084-2.293,11.545-0.963
	c-4.578,2.315-12.949,0.841-16.836,3.849c-1.898,0.616-1.164-1.401-2.404-1.442c-8.492,0.325-19.434,0.283-28.861-0.48
	c-2.879-0.232-6.688-0.268-8.176-2.405c3.693-0.289,3.994,1.185,6.732,0.962c1.957-1.57,3.32-3.734,4.328-6.253
	C398.167,130.872,396.487,130.308,396.94,127.61z"/>
<path d="M200.687,129.053c3.188,2.016,4.305,11.301,0,12.986C202.494,137.738,201.878,133.372,200.687,129.053z"/>
<path fill="#A8C399" d="M290.155,139.154c-4.213,7.011-15.816,6.632-26.937,6.734c0.13-2.437,1.548-3.582,0.962-6.734
	C270.818,137.549,283.504,137.625,290.155,139.154z"/>
<path fill="#A8C399" d="M319.497,141.56c0.029,1.793-0.484,3.042-0.961,4.329c-11.184-1.581-23.514-1.155-32.229-0.963
	c1.777-2.391,5.158-3.18,6.253-6.252C300.745,140.409,313.028,139.592,319.497,141.56z"/>
<path d="M156.433,140.598c4.961,1.878,3.577,14.371-1.443,14.91C157.749,151.622,159.74,145.45,156.433,140.598z"/>
<path fill="#A8C399" d="M320.94,141.079c8.461,0.84,17.707,0.894,25.975,1.924c-0.73,4.105-6.197,2.27-10.102,2.404
	c-5.301,0.186-11.471,0.867-16.354,0.481C320.592,144.26,321.223,143.125,320.94,141.079z"/>
<path fill="#A8C399" d="M379.141,143.965c-10.203,2.232-20.072,1.599-30.783,1.441c0-0.802,0-1.603,0-2.404
	C359.983,142.043,367.43,143.676,379.141,143.965z"/>
<path fill="#A8C399" d="M316.612,146.851c0.205,1.328-1.795,0.45-1.926,1.442c1.881,2.479,3.307-1.143,5.291-1.442
	c8.713,0.3,17.264-0.487,23.57,0c-0.043,1.241-2.061,0.506-1.443,2.405c2.025,1.021,3.842-1.785,5.291-2.887
	c9.812,1.221,20.789-0.306,30.785-0.48c-0.518,1.566-1.67,2.5-1.924,4.328c-24.896-0.135-51.006,1.34-78.887,1.443
	c-26.749,0.1-50.312,1.512-72.633,3.848c1.152-2.088,3.809-2.994,5.772-3.366c13.364-2.528,27.135-0.593,39.924-3.367
	c-1.485-2.767-7.3,0.595-8.659-0.479c3.375-2.15,8.692-1.498,13.469-1.924C289.629,145.083,305.239,145.779,316.612,146.851z"/>
<path fill="#A8C399" d="M258.889,148.774c-10.466,0.277-19.116,2.369-29.823,2.405C238.663,149.65,248.6,147.096,258.889,148.774z"
	/>
<path fill="#A8C399" d="M226.18,152.142c-4.528-0.039-7.672,1.308-12.506,0.962C216.658,152.181,223.573,150.256,226.18,152.142z"/>
<path fill="#F48F9B" d="M68.889,153.104c-2.075,3.943-7.012,0.994-11.063,0.48C61.127,153.059,65.877,154.431,68.889,153.104z"/>
<path fill="#A8C399" d="M228.104,193.991c-1.738,4.902-6.526,8.651-11.063,8.657c-7.356,0.011-13.995-8.815-18.278-12.024
	c-12.833-6.729-21.01-18.113-31.747-26.938c1.602,4.557,6.026,7.877,9.62,11.544c6.555,6.688,13.824,11.528,21.646,17.798
	c5.225,4.188,9.017,8.641,16.354,10.582c-0.408,1.838-2.882,1.607-4.329,2.405c-18.104-12.521-36.118-25.132-50.506-41.367
	c1.507,5.124,6.307,8.319,10.102,12.024c3.668,3.582,7.325,7.691,11.544,11.062c8.489,6.784,18.919,11.725,26.456,19.241
	c-11.637,4.61-20.452-1.81-28.38-6.254c-3.825-3.845-9.928-9.632-14.911-13.949c-1.679-1.454-4.345-2.417-5.772-3.849
	c-3.771-3.78-9.72-13.35-6.734-18.277c10.892-3.229,22.833-4.352,32.709,0c1.645,0.725,2.682,2.452,4.329,3.367
	C202.561,175.463,219.805,183.877,228.104,193.991z M219.927,198.799c0.537-3.262-3.489-1.963-3.848-4.328
	c-16.996-7.215-28.597-19.825-41.848-30.784c-0.321,0-0.642,0-0.962,0C186.217,178.354,200.982,189.487,219.927,198.799z
	 M188.18,197.838c-2.978-0.123-4.26-2.719-6.253-4.33c-9.701-7.836-20.48-15.883-26.456-26.936c-0.98-0.27-0.943-1.447-1.924-0.482
	c-0.375,0.107-0.559,0.404-0.481,0.963c7.529,12.354,19.649,20.115,29.342,30.305c5.931,2.245,9.23,7.124,15.874,8.658
	C196.533,201.67,190.209,201.901,188.18,197.838z M187.699,170.901c12.948,6.773,22.858,16.585,36.076,23.09
	c-1.313-3.537-5.421-4.893-8.177-6.734c-9.278-6.205-17.826-12.5-26.937-18.278c-0.321,0-0.641,0-0.962,0
	C187.699,169.618,187.699,170.26,187.699,170.901z"/>
<path d="M173.269,163.687c0.32,0,0.641,0,0.962,0c13.251,10.959,24.853,23.569,41.848,30.784c0.359,2.365,4.385,1.066,3.848,4.328
	C200.982,189.487,186.217,178.354,173.269,163.687z"/>
<path d="M198.282,206.016c-6.644-1.534-9.942-6.413-15.874-8.658c-9.693-10.189-21.812-17.951-29.342-30.305
	c-0.078-0.559,0.106-0.855,0.481-0.963c0.981-0.965,0.943,0.214,1.924,0.482c5.976,11.053,16.755,19.1,26.456,26.936
	c1.993,1.611,3.275,4.207,6.253,4.33C190.209,201.901,196.533,201.67,198.282,206.016z"/>
<path d="M187.699,168.978c0.321,0,0.641,0,0.962,0c9.111,5.778,17.659,12.073,26.937,18.278c2.756,1.843,6.863,3.197,8.177,6.734
	c-13.217-6.505-23.127-16.316-36.076-23.09C187.699,170.26,187.699,169.618,187.699,168.978z"/>
<path fill="#A8C399" d="M557.118,181.483c-0.691-2.078-2.188,0.977-3.85-0.48c-7.283-4.9-11.924-12.445-18.76-17.797
	c-22.342-13.574-49.455-22.377-79.848-27.898c8.496,5.781,21.916,4.836,33.189,8.177c14.334,4.249,26.869,11.036,38.961,17.315
	c-13.188-4.411-27.727-13.772-45.215-17.315c-10.428-2.112-20.879-2.45-28.859-7.215c4.154,5.946,14.383,5.819,21.645,8.657
	c4.211,8.298,14.092,10.922,19.723,17.798c14.967,8.123,24.533,21.644,40.404,28.86c-8.383,1.445-18.467-9.041-25.975-14.91
	c-11.67-9.127-21.49-15.51-32.709-23.57c-4.854-0.917-6.436-5.109-11.062-6.253c-0.225-1.026,0.688-0.916,1.443-0.962
	c-2.865-5.521-10.479-4.719-16.836-3.367c-12.287,7.869-33.852,5.848-53.393,6.734c-5.926,0.269-11.879,1.176-17.316,0
	c0.486-1.276,1.652-1.875,1.924-3.367c27.027,0.059,46.605-0.357,69.266-4.329c-5.865-1.886-11.928,1.317-18.76,1.924
	c-15.52,1.378-32.916,1.431-50.025,0.962c2.145-2.037,9.027-0.766,12.025-0.48c-1.408-3.079-8.291-0.687-12.025-1.442
	c0.146-3.19-0.443-5.647-2.885-6.253c-1.416,1.919,1.959,3.156,1.443,5.771c-17-0.642-37.26,0.808-54.355-1.442
	c-1.887-0.249-4.377-0.373-5.771-1.925c-1.152-0.19,0.268,2.191-1.443,1.443c-9.758-0.863-14.447-2.16-24.53-1.925
	c-1.171-1.012,0.426-2.139-0.481-2.886c-1.736-0.135-1.1,2.105-1.924,2.886c-15.04-2.261-31.856-0.354-40.886,0
	c3.009,3.46,9.581-1.897,12.987,0.962c-0.425,2.781-1.203,5.211-2.405,7.217c-9.354,0.949-20.324,1.361-30.785,2.885
	c-0.351-1.729-0.574-3.15-0.481-4.328c9.325-1.578,19.635-2.172,28.38-4.329c-4.957-0.683-12.857,0.976-17.798,1.924
	c-21.068,4.05-44.832,6.46-67.823,6.733c15.821,1.648,37.576-0.129,55.797-3.848c0.786,0.777-0.429,2.012,0,3.848
	c-21.984,4.437-38.245,3.119-62.05,3.367c12.519,1.668,21.569,1.656,36.557,0.963c-13.663,7.132-32.203-0.297-47.621,5.291
	c11.154-1.608,18.791-1.455,32.709,0c9.465-3.522,24.211-4.328,35.114-4.812c0.396,1.839-2.319,0.567-1.924,2.405
	c-11.354,2.14-23.743,1.572-33.671,3.367c-7.091,1.281-15.948-1.445-24.051-0.48c-6.78,0.807-11.232,4.721-18.278,4.329
	c1.99-2.819,7.583-2.038,9.62-4.812c-3.034-0.779-6.278,2.375-9.62,2.887c-3.167-17.195-13.507-27.219-28.38-32.709
	c-7.863-6.913-23.168-9.123-30.304-16.835c-4.319-4.669-4.719-13.486,0.481-18.278c4.174-3.847,12.45-5.827,19.241-9.14
	c16.605-8.1,33.63-16.391,38.962-35.595c0.725-5.051-1.066-6.013,4.329-5.291c-0.202,1.08-2.552,0.013-2.886,0.962
	c4.165,0.748,3.552,6.821,3.848,10.101c2.973-1.963,0.668-7.021,0-9.62c9.242,3.297,24.474,5.263,35.114,0.962
	c6.287,3.089,17.264,4.151,23.57,8.658c-2.858,1.039-10.014-1.81-13.468-3.367c-5.507-0.105-9.222-2.001-13.95-2.886
	c6.769,4.871,18.495,4.483,26.937,8.658c-0.561,2.165-2.317,3.134-3.367,4.81c2.666,0.987,3.67-2.781,5.291-4.329
	c9.374,2.332,17.753,5.657,27.418,7.696c-7.367-5.14-20.141-4.872-27.418-10.102c3.233-0.969,8.053,0.401,11.544,1.443
	c7.739,2.311,15.92,5.467,24.051,6.734c-0.271,2.194,1.813,2.035,1.443,4.329c5.531,0.958,13.6,2.906,20.684,3.848
	c2.171,1.729,0.634,5.478,1.443,7.696c2.104-1.461,0.688-4.095,0.962-6.734c5.046,1.688,11.17,2.297,14.911,5.291
	c0.5,3.546-1.891,4.202-1.924,7.215c3.137-0.39,2.957-4.099,3.367-7.215c7.358,2.583,15.322,4.559,21.646,8.177
	c0.127,3.494-1.684,5.05-2.404,7.696c2.062,0.33,3.697-3.582,3.365-7.215c5.398,1.335,8.6,4.87,14.432,5.772
	c-3.893-5.087-14.43-3.529-15.393-11.544c9.182,3.004,19.803,4.569,27.418,9.139c0.484,2.89-0.707,4.104-0.963,6.253
	c3.043-0.213,2.979-4.272,2.406-6.734c21.221,7.753,43.631,15.279,67.342,21.164c13.322,3.309,27.811,6.307,39.924,11.545
	c-3.41,1.053-6.385-1.756-10.582-1.443c0.543,3.465,6.574,1.442,8.178,3.849c13.439,1.798,28.135,5.312,40.404,9.621
	c7.045,2.475,15.438,4.384,21.646,7.215c11.096,5.06,20.756,13.485,34.15,17.798c8.375,5.734,16.842,11.378,20.203,22.126
	c-0.799,1.606-2.092,2.72-3.85,3.367c-10.48-6.032-16.506-16.522-26.455-23.089c10.447,4.305,15.453,14.049,24.051,20.203
	C553.768,181.663,556.45,182.581,557.118,181.483z M162.687,62.192c3.504-1.381,2.678-8.847,0.962-11.544c-0.481,0-0.962,0-1.443,0
	C163.888,53.95,163.923,58.345,162.687,62.192z M190.104,61.711c-0.039,2.022-2.746,3.545-0.962,4.81
	c3.746-2.918,1.918-12.276-1.924-13.468C186.758,55.766,190.175,58.093,190.104,61.711z M216.079,75.18
	c-0.232,1.135-3.387,3.651-0.962,4.329c3.409-3.313,3.748-11.315-0.962-13.468C213.446,68.633,217.296,70.508,216.079,75.18z
	 M158.838,77.104c-0.127,3.17-3.266,5.17-1.924,7.215c5.024-3.35,4.274-15.012-2.405-15.874
	C156.604,71.315,159.017,72.672,158.838,77.104z M233.396,78.066c0.607,4.3-2.161,6.131-4.81,8.177
	c5.653,1.916,9.105-10.718,2.886-12.506C231.374,75.804,233.147,76.312,233.396,78.066z M292.56,101.635
	c2.354-2.506,2.969-10.207-0.481-12.025c-0.373,0.107-0.947,0.013-0.961,0.481C295.065,92.542,291.04,99.545,292.56,101.635z
	 M277.648,101.635c-12.665-3.01-30.24-4.865-43.291-6.253c-17.925-1.907-39.104,0.233-57.241-0.962
	c-7.702-0.507-12.443-5.094-19.721-1.443c-0.983,2.297-0.319,5.729,0,8.177c13.085,7.243,32.09,1.296,47.62,3.367
	c16.305,2.175,39.044-1.091,55.797,3.849c1.584,3.021-1.414,5.209-1.924,7.695c3.922-0.246,3.227-5.109,4.329-8.177
	c22.169,3.747,44.364,10.021,65.418,14.911c5.441,1.265,11.609,0.307,15.873,3.367c0.58,9.105-8.748,4.426-14.432,3.849
	c-15.9-1.616-37.688-2.636-50.025-5.772c0.023-0.531,1.839-6.043-0.962-6.252c-0.967,1.438-0.272,4.537-0.481,6.732
	c-2.741,2.712-12.055-1.151-13.95,2.404c3.14-0.555,8.958-0.974,12.025,0c0.207,2.33-3.596,2.543-2.405,4.33
	c4.304,0.295,2.842-5.176,6.253-5.771c15.451,3.084,33.08,3.43,49.062,5.291c4.285,0.499,9.23,0.798,12.025,3.367
	c1.887-1.973,4.746,0.113,6.254-0.481c0.611-2.215-2.439-0.768-2.887-1.924c1.625-2.508,0.85-4.263,1.441-6.253
	c6.422-0.083,17.016,2.152,25.014,0.48c0.854-0.91,0.352-3.178,0.48-4.811c-6.438-4.126-18.613-3.318-26.936-6.734
	c3.08-1.141,5.822-7.648,1.924-10.102c-1.426,1.777,1.152,2.762,0.479,5.291c-1.09,1.955-2.736,3.354-4.328,4.811
	C321.62,110.435,302.168,104.638,277.648,101.635z M104.484,106.926c4.107-1.843,3.541-11.418,0-13.468
	C105.779,98.504,105.95,102.089,104.484,106.926z M124.687,100.673c0.523,4.143-1.638,6.24-3.367,9.139
	c5.834-0.755,6.315-12.204,1.443-14.43C121.974,97.372,124.38,98.243,124.687,100.673z M366.635,101.635
	c5.549,6.413-2.008,8.208-4.328,11.544C369.608,115.016,372.903,101.875,366.635,101.635z M92.458,114.142
	c3.735-0.306,5.319-8.149,2.405-10.582C94.131,106.276,94.921,111.069,92.458,114.142z M206.458,119.433
	c4.446,0.513,5.707-12.332-0.481-12.507C208.725,110.479,209.618,115.776,206.458,119.433z M173.269,117.991
	c-0.265,3.729-3.499,5.078-5.292,7.695c6.619-0.115,8.351-12.109,3.367-15.393C170.826,113.004,173.485,114.948,173.269,117.991z
	 M382.028,122.799c3.631-0.117,2.82-8.512,1.443-10.582c-0.48,0-0.963,0-1.443,0C383.127,116.514,383.586,118.797,382.028,122.799z
	 M400.307,121.838c4.578,1.365,7.203-3.375,6.252-9.141c-0.613-0.025-0.666-0.615-1.441-0.48
	C406.325,116.312,403.692,119.75,400.307,121.838z M418.104,124.243c3.842,2.549,8.328-5.004,4.328-7.215
	C423.417,120.752,420.27,122.319,418.104,124.243z M248.307,127.61c-0.599,2.703-3.227,2.895-3.367,5.291
	c5.125-0.753,6.419-10.408,2.405-13.469C247.089,121.821,249,124.481,248.307,127.61z M184.332,134.345
	c2.147-4.947,0.272-12.707-4.329-13.95C182.741,123.749,184.16,128.422,184.332,134.345z M216.079,134.345
	c5.709,1.61,8.141-10.587,2.405-12.507C221.585,126.704,220.909,131.813,216.079,134.345z M146.332,139.635
	c4.314-1.28,5.327-11.399,1.443-13.948C149.198,131.034,148.454,135.561,146.332,139.635z M398.381,132.901
	c-1.008,2.52-2.371,4.684-4.328,6.253c-2.738,0.222-3.039-1.251-6.732-0.962c1.486,2.139,5.297,2.172,8.176,2.405
	c9.428,0.765,20.369,0.807,28.861,0.479c1.24,0.043,0.506,2.061,2.404,1.443c3.887-3.008,12.258-1.532,16.836-3.848
	c-4.461-1.332-7.963,0.656-11.545,0.961c-0.801-2.799,2.268-6.967-0.963-7.695c0.316,3.684-0.539,6.193-2.404,7.695
	c-10.674,0.725-23.432,1.027-31.746-0.48c2.705-3.145,3.828-7.348,1.441-11.544c-0.479,0-0.961,0-1.441,0
	C396.487,130.308,398.167,130.872,398.381,132.901z M200.687,142.04c4.305-1.687,3.188-10.972,0-12.986
	C201.878,133.372,202.494,137.738,200.687,142.04z M154.99,155.508c5.02-0.539,6.404-13.032,1.443-14.91
	C159.74,145.45,157.749,151.622,154.99,155.508z"/>
<path fill="#A8C399" d="M247.826,66.521c0.801-0.956-0.043-0.612,0-1.924c4.934-0.083,11.816,1.943,17.316,2.886
	c-2.301,1.573,2.739,2.95,0,3.367C260.193,68.585,252.961,68.602,247.826,66.521z"/>
<path fill="#A8C399" d="M456.104,143.483c10.018,3.451,15.938,11,25.494,14.911c5.113,5.31,13.092,7.753,17.797,13.469
	c1.359-0.397,1.246,0.679,2.404,0.481c3.139,4.181,8.418,6.998,12.988,10.582c3.369,2.642,7.154,5.25,9.139,8.177
	c-8.105-4.394-14.188-11.455-21.645-16.835c-10.184-7.348-21.451-13.182-31.268-21.165c-4.498,0.009-5.064-3.913-9.139-4.329
	C460.778,146.187,456.811,146.463,456.104,143.483z"/>
<path fill="#A8C399" d="M524.889,191.584c3.275,0.59,10.918,3.906,14.91,0c-0.482-1.873-1.654-0.074-3.367-0.48
	c-21.857-13.096-39.275-30.63-60.125-44.732c3.945-1.215,7.852,1.762,11.543,2.403c0.045,1.312-0.801,0.97,0,1.925
	c8.971,6.961,18.402,15.48,27.418,22.607c1.545,1.22,4.5,1.505,4.811,4.328c3.93,1.201,6.41,3.854,9.141,6.254
	c3.854-0.156,6.869,5.083,9.619,2.886c-1.928-1.919-4.674-3.022-7.695-3.849c-1.133-1.752-2.984-2.785-5.291-3.366
	c-0.697-1.868-2.686-2.444-4.328-3.367c-9.223-9.539-21.453-16.065-30.305-25.976c4.42,1.513,8.648,3.218,12.986,4.812
	c0.404,0.558,0.635,1.289,0.48,2.404c10.428,8.333,20.326,17.194,32.709,23.569c-1.963-4.771-7.051-6.418-11.545-8.658
	c-5.352-5.391-12.768-8.717-17.314-14.911c12.492,5.626,23.754,12.481,32.227,22.127c-0.775,4.552,1.535,6.881,0.963,10.103
	C540.303,197.646,530.038,195.804,524.889,191.584z"/>
<path fill="#7BE515" d="M194.915,42.952c28.457,10.409,60.37,15.374,90.43,23.569c9.157,2.497,18.128,6.038,26.937,8.658
	c9.035,2.688,17.48,6.45,26.455,7.696c2.256,2.821,6.256,2.797,9.621,3.848c9.498,2.966,20.793,6.479,29.822,10.582
	c18.287,5.118,37.301,11.195,54.354,16.835c6.01,1.987,12.354,3.423,17.799,5.772c3.854,1.662,7.156,4.92,11.061,6.252
	c13.328,4.547,27.645,5.887,40.406,11.545c3.918,1.736,7.816,3.853,11.545,5.771c3.713,1.912,6.949,4.794,10.582,6.734
	c1.146,0.611,3.121,0.346,4.328,0.961c7.109,3.63,15.43,9.4,23.09,13.47c3.525,5.132,7.471,9.845,10.582,15.392
	c0.553,4.082-0.756,6.301-2.406,8.178c-5.621,0.652-9.086-0.854-12.506-2.404c-0.602,4.975-2.428,11.258-6.732,13.949
	c-3.242,0.248-7.633,1.216-11.064,0c-12.764-4.521-24.541-16.415-35.594-25.014c-14.869-11.563-29.213-19.131-42.812-28.379
	c-9.1,4.697-26.697,5.043-40.404,6.733c-11.498-1.063-29.361,0.116-44.252,0.962c-39.859,2.264-80.154-0.451-120.735,3.367
	c-16.649,1.566-33.547,4.462-50.988,6.254c12.167,9.396,28.596,14.587,37.038,26.455c-0.897,5.027-0.432,10.88-3.367,13.469
	c-0.98,0.864-2.913,0.385-5.291,1.441c-2.71,1.207-2.782,3.668-7.215,2.888c-3.722,4.374-20.768,5.663-27.418,3.367
	c-13.872-4.791-24.606-21.39-34.633-29.823c-0.732-5.361-5.015-7.171-5.291-12.986c-12.834,2.649-29.949-0.367-42.329-4.811
	c-2.978,2.701-10.795-0.27-14.431,0c-2.664,0.195-3.182-0.004-6.734-0.963c-1.76-0.475-3.665-0.512-5.292-0.963
	c-3.044-0.842-6-3.025-8.658-3.366c-2.249-0.287-4.898,0.616-7.215,0.481c-6.241-0.363-13.458-2.646-18.76-5.772
	c-1.914-1.129-3.259-3.267-5.291-4.329c-2.452-1.281-5.33-1.334-7.696-2.404c-10.98-4.969-19.877-13.267-25.975-23.089
	c-6.873-11.071-8.372-28.576-0.962-39.443C8.5,78.574,15.101,73.233,20.785,68.925c5.929-4.494,13.168-7.56,20.684-9.621
	c5.133-7.76,17.491-8.431,30.304-9.62c10.196-0.946,18.852-5.806,28.38-5.291c2.149,0.116,3.972,1.028,5.772,0.962
	c5.603-0.205,12.242-3.241,18.278-4.329c8.621-1.554,16.169-0.968,24.051,0.962c0.898-11.597,8.425-16.998,16.354-23.569
	c4.726-3.917,8.84-8.246,14.43-12.025c5.23-3.537,6.968-5.649,13.949-6.253c11.571-1,28.17,3.443,38,9.14
	c5.88,11.737-8.727,18.35-15.874,22.607C207.461,36.449,200.61,40.201,194.915,42.952z"/>
<path d="M196.357,2.066c-13.53,13.887-34.119,20.717-41.848,40.405c0.328-7.589,5.409-13.95,10.583-18.278
	c5.034-4.212,10.932-8.684,16.354-12.506c3.992-2.813,9.125-4.96,11.063-9.139c-2.457-0.218-3.57,1.554-4.81,1.924
	c-7.695,2.296-14.321,10.179-21.165,15.874c-7.201,5.993-14.148,10.901-15.393,21.165c3.676,3.219,9.091,4.698,15.874,4.81
	c0-1.283,0-2.565,0-3.848c1.808-4.255,3.921-5.51,6.734-8.658c1.586-1.775,2.875-4.004,4.329-5.291
	c10.053-8.9,23.756-14.245,30.304-24.532c-1.129-0.474-2.363-0.843-3.848-0.962c-4.462,5.96-12.305,8.539-16.835,14.43
	c-0.081-0.56-0.76-0.522-1.443-0.481c-10.306,7.332-19.325,15.95-25.975,26.937c5.781-19.715,28.073-27.081,41.367-40.886
	C200.296,2.296,197.938,2.57,196.357,2.066z"/>
<path d="M211.269,4.471c-5.055,7.732-14.037,11.34-21.165,16.835c-0.927,0.715-1.863,1.456-1.924,2.886
	c-7.471,4.148-18.153,11.575-19.24,22.126c17.68,0.267,29.353-10.104,39.924-16.835c6.055-3.855,12.411-6.344,15.874-9.139
	c5.908-4.77,4.424-12.066-3.367-12.987c-10.185,9.376-25.675,13.447-33.19,25.494c-5.413,1.027-7.745,9.231-12.987,12.025
	c0.1-3.726,3.72-5.862,5.772-8.177c6.799-7.669,13.734-13.846,22.127-19.722c5.217-3.652,12.81-5.925,16.354-10.101
	C217.191,5.604,213.723,5.544,211.269,4.471z"/>
<path fill="#BA3838" d="M74.18,51.609c-7.817,3.71-15.299,9.235-25.975,9.62c-1.274,0.046-2.952-0.647-4.329-0.481
	c-6.816,0.824-16.605,7.154-21.165,10.582c-5.485,4.126-14.44,11.712-16.835,16.356c-5.161,10.007-3.84,22.561,0.962,31.747
	c10.102,10.261,20.331,20.396,35.595,25.493c11.574-0.35,19.814,2.634,27.417,6.254c-0.091,2.354,5.703,4.087,6.253,4.33
	c7.962,3.514,18.981,6.613,26.937,4.328c3.195,0.35,27.536,7.51,38.481,4.811c0.043-2.059-0.285-7.473-0.48-8.178
	c-2.026-7.314-5.952-12.223-10.583-16.354c-11.203-9.998-28.59-14.258-40.886-21.646c-11.066-6.648-12.824-22.043-0.962-28.86
	c14.931-8.581,39.189-14.959,47.621-28.38c3.248-5.169,7.227-12.685,5.291-18.278c-1.137-0.333-4.303-1.112-5.291,0
	c-1.625,0.51-18.719,2.885-22.127,2.885c-3.148,0.058-4.82,1.593-8.177,1.443c-2.071-0.427-5.888,0.436-7.696,0.479
	C90.234,48.582,74.971,51.233,74.18,51.609z"/>
<path fill="#BA3838" d="M552.307,181.965c-8.598-6.154-13.604-15.898-24.051-20.203c9.947,6.566,15.975,17.057,26.455,23.089
	c1.756-0.647,3.049-1.761,3.848-3.367c-3.361-10.748-11.826-16.392-20.201-22.126c-13.396-4.312-23.057-12.738-34.152-17.798
	c-6.209-2.831-14.6-4.74-21.646-7.215c-12.27-4.312-26.965-7.823-40.404-9.621c-1.604-2.405-7.633-0.384-8.178-3.849
	c4.197-0.312,7.174,2.496,10.582,1.443c-12.111-5.238-26.602-8.236-39.924-11.545c-23.709-5.885-46.121-13.411-67.342-21.164
	c0.572,2.461,0.637,6.521-2.404,6.734c0.256-2.149,1.447-3.363,0.961-6.253c-7.615-4.57-18.234-6.135-27.418-9.139
	c0.965,8.015,11.502,6.457,15.395,11.544c-5.832-0.902-9.033-4.437-14.432-5.772c0.332,3.633-1.305,7.545-3.367,7.215
	c0.723-2.646,2.531-4.203,2.404-7.696c-6.322-3.618-14.286-5.595-21.645-8.177c-0.412,3.116-0.229,6.825-3.367,7.215
	c0.033-3.013,2.422-3.669,1.924-7.215c-3.741-2.994-9.865-3.603-14.911-5.291c-0.274,2.639,1.141,5.273-0.962,6.734
	c-0.809-2.219,0.729-5.968-1.443-7.696c-7.084-0.942-15.153-2.89-20.684-3.848c0.371-2.294-1.713-2.135-1.443-4.329
	c-8.13-1.267-16.312-4.423-24.051-6.734c-3.491-1.042-8.311-2.412-11.544-1.443c7.277,5.229,20.051,4.962,27.418,10.102
	c-9.665-2.04-18.044-5.365-27.418-7.696c-1.621,1.548-2.625,5.316-5.291,4.329c1.05-1.676,2.807-2.645,3.367-4.81
	c-8.442-4.175-20.168-3.788-26.937-8.658c4.728,0.885,8.442,2.781,13.95,2.886c3.455,1.557,10.61,4.405,13.468,3.367
	c-6.306-4.507-17.283-5.569-23.57-8.658c-10.64,4.301-25.872,2.335-35.114-0.962c0.668,2.599,2.973,7.657,0,9.62
	c-0.296-3.28,0.316-9.353-3.848-10.101c0.334-0.949,2.684,0.118,2.886-0.962c-5.395-0.722-3.604,0.24-4.329,5.291
	C139.557,68.409,122.532,76.7,105.927,84.8c-6.791,3.312-15.067,5.293-19.241,9.14c-5.2,4.792-4.8,13.609-0.481,18.277
	c7.136,7.713,22.441,9.923,30.304,16.836c14.873,5.49,25.212,15.514,28.38,32.709c3.342-0.512,6.586-3.666,9.62-2.887
	c-2.038,2.772-7.63,1.99-9.62,4.812c7.046,0.392,11.498-3.522,18.278-4.329c8.103-0.965,16.959,1.764,24.051,0.48
	c9.928-1.795,22.316-1.229,33.671-3.367c-0.396-1.838,2.319-0.566,1.924-2.405c-10.902,0.483-25.648,1.288-35.114,4.812
	c-13.918-1.455-21.555-1.608-32.709,0c15.417-5.588,33.958,1.84,47.621-5.291c-14.988,0.692-24.038,0.705-36.557-0.963
	c23.806-0.248,40.066,1.068,62.05-3.367c-0.429-1.836,0.786-3.069,0-3.848c-18.222,3.719-39.977,5.495-55.797,3.848
	c22.991-0.273,46.755-2.684,67.823-6.733c4.94-0.948,12.841-2.606,17.798-1.924c-8.745,2.157-19.055,2.751-28.38,4.329
	c-0.093,1.178,0.13,2.6,0.481,4.328c10.461-1.522,21.431-1.936,30.785-2.885c1.202-2.006,1.98-4.436,2.405-7.217
	c-3.406-2.859-9.978,2.498-12.987-0.962c9.029-0.354,25.846-2.261,40.886,0c0.824-0.778,0.188-3.021,1.924-2.886
	c0.908,0.747-0.688,1.874,0.481,2.886c10.085-0.235,14.772,1.062,24.53,1.925c1.711,0.748,0.291-1.635,1.443-1.443
	c1.396,1.552,3.885,1.676,5.771,1.925c17.096,2.25,37.355,0.802,54.355,1.442c0.516-2.615-2.859-3.854-1.443-5.771
	c2.441,0.605,3.031,3.062,2.887,6.253c3.732,0.757,10.615-1.638,12.023,1.442c-2.998-0.284-9.881-1.557-12.023,0.48
	c17.107,0.469,34.504,0.416,50.023-0.962c6.832-0.606,12.895-3.81,18.76-1.924c-22.658,3.972-42.238,4.388-69.266,4.329
	c-0.27,1.492-1.436,2.091-1.924,3.367c5.438,1.176,11.393,0.269,17.316,0c19.541-0.889,41.104,1.135,53.393-6.734
	c6.357-1.352,13.971-2.154,16.836,3.367c-0.756,0.046-1.668-0.064-1.443,0.962c4.629,1.144,6.209,5.336,11.062,6.253
	c11.219,8.062,21.039,14.443,32.709,23.57c7.508,5.869,17.592,16.355,25.975,14.91c-15.871-7.217-25.438-20.737-40.404-28.86
	c-5.631-6.876-15.512-9.5-19.723-17.798c-7.262-2.838-17.49-2.711-21.645-8.657c7.98,4.765,18.432,5.103,28.859,7.215
	c17.488,3.543,32.027,12.904,45.215,17.315c-12.092-6.279-24.627-13.066-38.961-17.315c-11.273-3.341-24.693-2.396-33.189-8.177
	c30.393,5.521,57.506,14.324,79.848,27.898c6.836,5.352,11.477,12.896,18.76,17.797c1.662,1.457,3.158-1.598,3.85,0.48
	C556.45,182.581,553.768,181.663,552.307,181.965z"/>
<path d="M207.421,49.686c-6.109-0.972-11.737-4.904-17.798-4.329c-0.375,0.106-0.559,0.403-0.481,0.962
	c5.945,2.393,12.892,3.783,18.76,6.253C208.249,51.103,207.41,50.819,207.421,49.686z"/>
<path d="M210.307,50.648c-0.115-0.738-0.792-0.07-0.962,0.481c0.561,0.081,0.522,0.761,0.481,1.443
	c11.37,3.221,22.606,6.575,34.152,9.62C236.785,54.314,221.229,54.797,210.307,50.648z"/>
<path fill="#2CB9FF" d="M54.364,54.798c-3.514,1.442-6.825,3.132-9.526,3.545c1.476,2.191,5.35,1.352,7.696,0.962
	c5.241-0.871,14.146-3.822,16.354-7.215C68.671,51.146,58.342,53.166,54.364,54.798z"/>
<path d="M245.902,62.192c29.292,5.687,55.88,14.872,82.733,23.57c13.498,4.372,26.912,8.425,40.404,13.468
	c13.363,4.994,27.443,9.194,42.33,11.544c2.322,1.533,7.104,3.148,10.102,2.405C362.37,95.96,309.014,72.994,245.421,60.268
	C245.313,61.178,245.963,61.33,245.902,62.192z"/>
<path d="M265.142,70.851c2.739-0.417-2.301-1.794,0-3.367c-5.5-0.943-12.382-2.969-17.316-2.886c-0.043,1.312,0.801,0.968,0,1.924
	C252.961,68.602,260.193,68.585,265.142,70.851z"/>
<path d="M266.585,67.964c-0.026-0.506-0.617-0.378-0.481,0.481c3.919,4.098,11.386,4.648,17.316,6.734
	c1.002-0.142-0.713-1.301,0.963-1.443c1.217,0.386,1.227,1.98,1.924,2.886c7.561,1.259,14.004,6.196,21.164,6.253
	c-1.508-0.333-0.627-1.283-0.479-2.405C294.127,75.696,280.686,71.501,266.585,67.964z"/>
<path d="M264.18,139.154c0.586,3.152-0.832,4.3-0.962,6.734c11.12-0.104,22.723,0.274,26.937-6.734
	C283.504,137.625,270.818,137.549,264.18,139.154z"/>
<path d="M292.56,138.674c-1.095,3.072-4.476,3.861-6.253,6.252c8.715-0.192,21.045-0.618,32.229,0.963
	c0.477-1.287,0.99-2.536,0.961-4.329C313.028,139.592,300.745,140.409,292.56,138.674z"/>
<path d="M320.458,145.889c4.885,0.386,11.055-0.297,16.355-0.48c3.902-0.137,9.369,1.7,10.102-2.404
	c-8.27-1.031-17.516-1.086-25.975-1.926C321.223,143.125,320.592,144.26,320.458,145.889z"/>
<path d="M348.358,143.002c0,0.803,0,1.604,0,2.404c10.711,0.156,20.58,0.791,30.783-1.441
	C367.43,143.676,359.983,142.043,348.358,143.002z"/>
<path d="M461.875,148.774c4.074,0.416,4.643,4.338,9.141,4.329c9.814,7.983,21.082,13.817,31.266,21.165
	c7.457,5.38,13.539,12.441,21.646,16.835c-1.984-2.927-5.77-5.535-9.141-8.177c-4.57-3.584-9.85-6.401-12.986-10.582
	c-1.16,0.195-1.047-0.879-2.404-0.481c-4.707-5.716-12.684-8.159-17.799-13.469c-9.557-3.911-15.477-11.46-25.492-14.911
	C456.811,146.463,460.778,146.187,461.875,148.774z"/>
<path d="M275.244,146.37c-4.776,0.428-10.094-0.227-13.469,1.924c1.359,1.074,7.173-2.285,8.659,0.48
	c-12.789,2.773-26.56,0.839-39.924,3.367c-1.963,0.372-4.62,1.279-5.772,3.367c22.321-2.338,45.884-3.748,72.632-3.848
	c27.883-0.104,53.99-1.58,78.887-1.443c0.256-1.829,1.406-2.764,1.924-4.329c-9.994,0.176-20.971,1.7-30.783,0.481
	c-1.449,1.101-3.268,3.907-5.291,2.885c-0.617-1.898,1.4-1.164,1.441-2.404c-6.307-0.487-14.855,0.3-23.568,0
	c-1.984,0.301-3.412,3.923-5.291,1.443c0.131-0.992,2.131-0.115,1.924-1.443C305.239,145.779,289.629,145.083,275.244,146.37z"/>
<path d="M541.723,189.661c0.574-3.221-1.738-5.55-0.961-10.102c-8.475-9.645-19.734-16.501-32.229-22.127
	c4.549,6.193,11.965,9.521,17.316,14.912c4.492,2.24,9.58,3.887,11.545,8.658c-12.385-6.377-22.281-15.237-32.709-23.57
	c0.152-1.115-0.078-1.848-0.48-2.404c-4.34-1.594-8.566-3.299-12.988-4.811c8.852,9.908,21.084,16.436,30.305,25.975
	c1.645,0.922,3.633,1.499,4.328,3.367c2.307,0.581,4.158,1.613,5.291,3.367c3.023,0.824,5.77,1.929,7.697,3.848
	c-2.75,2.197-5.768-3.042-9.621-2.886c-2.729-2.399-5.209-5.052-9.139-6.253c-0.311-2.824-3.268-3.109-4.811-4.329
	c-9.018-7.127-18.449-15.647-27.418-22.608c-0.801-0.955,0.043-0.611,0-1.924c-3.691-0.643-7.6-3.617-11.545-2.404
	c20.852,14.104,38.27,31.639,60.127,44.733c1.711,0.407,2.883-1.394,3.367,0.481c-3.992,3.904-11.637,0.588-14.912,0
	C530.038,195.804,540.303,197.646,541.723,189.661z"/>
<path d="M229.066,151.18c10.707-0.036,19.357-2.129,29.823-2.405C248.6,147.096,238.663,149.65,229.066,151.18z"/>
<path d="M213.674,153.104c4.834,0.346,7.978-1.001,12.506-0.962C223.573,150.256,216.658,152.181,213.674,153.104z"/>
<path fill="#2CB9FF" d="M66.002,151.661c-5.775-2.742-13.519-6.019-21.646-4.812c1.356,1.862,4.059,4.149,6.316,4.316
	c1.827,0.136,7.154,2.419,7.154,2.419c4.051,0.514,8.989,3.463,11.063-0.48L66.002,151.661z"/>
<path d="M189.142,168.016c-1.647-0.915-2.684-2.643-4.329-3.367c-9.875-4.352-21.817-3.229-32.709,0
	c-2.986,4.93,2.963,14.497,6.734,18.277c1.428,1.432,4.093,2.395,5.772,3.849c4.983,4.317,11.086,10.104,14.911,13.949
	c7.928,4.444,16.743,10.864,28.38,6.254c-7.537-7.519-17.967-12.457-26.456-19.241c-4.219-3.371-7.875-7.48-11.544-11.062
	c-3.795-3.704-8.595-6.9-10.102-12.024c14.389,16.236,32.402,28.847,50.506,41.367c1.447-0.798,3.921-0.567,4.329-2.405
	c-7.337-1.941-11.129-6.396-16.354-10.582c-7.822-6.269-15.091-11.109-21.646-17.798c-3.594-3.667-8.019-6.987-9.62-11.544
	c10.737,8.823,18.914,20.208,31.747,26.938c4.284,3.209,10.922,12.035,18.278,12.024c4.537-0.006,9.325-3.755,11.063-8.657
	C219.805,183.877,202.561,175.463,189.142,168.016z"/>
</svg>
